<?xml version="1.0" standalone="no"?>
<!DOCTYPE svg PUBLIC "-//W3C//DTD SVG 20010904//EN"
 "http://www.w3.org/TR/2001/REC-SVG-20010904/DTD/svg10.dtd">
<svg version="1.0" xmlns="http://www.w3.org/2000/svg"
 width="470.000000pt" height="470.000000pt" viewBox="0 0 470.000000 470.000000"
 preserveAspectRatio="xMidYMid meet">
<metadata>
Created by potrace 1.11, written by Peter Selinger 2001-2013
</metadata>
<g transform="translate(0.000000,470.000000) scale(0.100000,-0.100000)"
fill="#000000" stroke="none">
<path d="M2899 4653 c0 -10 -3 -29 -6 -43 -3 -14 -6 -44 -6 -67 -2 -31 -6 -43
-17 -43 -9 0 -11 -3 -4 -8 12 -8 14 -52 2 -52 -4 0 -5 -7 -1 -16 3 -9 0 -20
-8 -25 -11 -7 -11 -9 -1 -9 8 0 11 -7 8 -17 -6 -22 -15 -84 -21 -143 -5 -43
-12 -85 -15 -85 -1 0 -3 -21 -4 -46 -1 -25 -6 -51 -10 -57 -4 -7 -2 -12 6 -12
8 0 9 -3 2 -8 -5 -4 -10 -22 -9 -40 0 -18 -3 -35 -7 -38 -4 -3 -4 -12 -1 -21
4 -9 2 -14 -3 -10 -5 3 -10 -3 -10 -13 0 -10 4 -16 8 -14 4 3 4 -6 -1 -19 -6
-14 -7 -28 -3 -32 3 -3 0 -10 -8 -15 -10 -6 -11 -10 -3 -10 14 0 6 -31 -11
-42 -8 -5 -7 -8 1 -8 9 0 10 -7 3 -25 -7 -19 -6 -23 5 -19 7 3 26 -2 42 -11
17 -11 21 -11 11 -2 -24 19 -23 22 10 23 15 0 41 3 57 5 20 2 29 0 28 -8 -2
-8 4 -10 14 -6 12 5 14 3 8 -7 -6 -9 -4 -11 5 -5 10 6 9 11 -5 22 -11 7 -16
14 -12 14 26 5 34 4 46 -5 11 -8 13 -8 7 2 -5 8 1 12 18 13 34 2 65 6 69 9 6
6 66 7 62 0 -2 -3 2 -7 9 -7 8 0 12 6 10 12 -3 6 2 12 10 12 8 0 12 -5 9 -11
-4 -6 1 -5 10 3 16 12 22 8 18 -12 -1 -5 3 -6 8 -2 6 3 7 13 4 22 -4 11 -3 14
5 9 19 -12 53 -16 47 -5 -8 12 48 12 61 -1 7 -7 11 -6 11 4 0 8 -4 13 -9 10
-4 -3 -8 0 -8 6 0 7 6 10 13 7 7 -2 33 -1 59 3 26 3 54 3 62 -2 12 -7 14 -5 9
9 -6 16 -5 17 12 3 11 -9 16 -10 11 -2 -4 6 -2 12 3 12 6 0 11 -4 11 -10 0 -5
5 -10 11 -10 5 0 8 4 5 9 -9 13 46 21 68 9 12 -7 16 -7 12 0 -9 15 20 22 34 9
10 -9 11 -9 6 1 -5 7 -1 12 11 13 10 0 27 3 38 5 11 3 36 6 55 9 19 2 51 7 70
10 19 4 54 7 76 8 34 2 41 5 39 20 -2 9 2 17 8 17 8 0 7 3 -2 9 -8 5 -12 19
-9 35 3 14 2 26 -2 26 -3 0 -6 23 -6 50 1 28 -3 50 -9 50 -5 0 -3 5 5 10 8 5
10 10 4 10 -10 0 -18 50 -19 133 0 26 -3 47 -7 47 -4 0 -7 10 -6 23 1 21 -11
143 -18 180 -1 9 3 17 9 17 9 0 9 2 0 8 -18 11 -20 75 -3 90 13 10 13 11 -2 6
-15 -5 -18 0 -18 25 l0 31 -480 0 c-450 0 -480 -1 -481 -17z"/>
<path d="M1435 4602 c-1 -2 -85 -5 -186 -8 -289 -8 -359 -11 -365 -16 -2 -3
-7 -27 -10 -54 -6 -63 -11 -91 -18 -103 -4 -5 -2 -12 3 -15 6 -4 6 -18 1 -35
-4 -16 -5 -33 -2 -37 4 -4 -2 -4 -12 0 -14 5 -16 3 -9 -6 12 -16 15 -60 3 -53
-5 3 -5 -8 0 -25 5 -16 5 -32 1 -35 -5 -2 -9 -15 -9 -27 -1 -13 -4 -43 -7 -68
-3 -25 -8 -80 -11 -122 -6 -77 -6 -78 17 -80 13 0 29 -2 34 -3 6 -2 20 -3 32
-4 16 -1 21 -6 17 -18 -5 -16 -4 -16 6 0 8 12 16 15 23 9 7 -5 19 -10 27 -10
8 -1 34 -2 58 -3 23 -1 42 -6 42 -11 0 -5 5 -6 10 -3 6 3 10 0 10 -7 0 -8 3
-9 8 -3 4 6 13 10 20 9 6 -1 17 -2 23 -3 5 0 7 -7 3 -13 -6 -10 -5 -10 7 -1
14 12 54 12 74 2 10 -5 54 -10 102 -12 18 -1 20 -4 10 -16 -10 -12 -9 -13 10
-3 26 14 36 15 28 3 -3 -5 -1 -12 4 -15 5 -4 13 -1 17 5 5 8 3 9 -7 4 -12 -7
-12 -6 0 6 9 9 15 10 18 3 2 -6 15 -9 28 -6 15 2 25 0 25 -7 0 -6 5 -11 11
-11 5 0 7 5 3 12 -5 7 -3 8 5 4 14 -9 61 -18 104 -20 15 0 27 -5 27 -9 0 -5 9
-6 20 -2 29 9 44 -3 28 -23 -11 -15 -10 -15 7 0 12 9 31 16 43 15 22 -1 22 -2
6 -14 -10 -7 -13 -13 -6 -13 6 0 17 6 24 14 9 10 20 11 36 5 13 -5 28 -7 33
-3 5 3 9 1 9 -5 0 -5 -6 -11 -12 -14 -7 -3 -3 -4 9 -4 12 1 20 5 17 9 -3 4 9
6 26 5 16 -1 30 -4 30 -8 0 -3 26 -5 58 -5 45 1 56 4 54 16 -2 8 -5 33 -7 55
-1 22 -5 47 -9 55 -3 8 -7 26 -8 40 -2 14 -7 30 -11 37 -4 6 -1 14 5 16 10 4
10 6 1 6 -7 1 -13 6 -13 12 0 5 6 7 13 4 6 -4 5 -1 -3 7 -9 7 -15 25 -15 41 1
15 -2 27 -6 27 -3 0 -7 12 -8 28 -4 72 -6 87 -12 92 -4 3 -9 28 -13 57 -3 28
-8 57 -11 65 -5 16 -14 60 -21 113 -3 22 -8 47 -10 55 -3 8 -8 29 -10 45 -2
17 -6 39 -8 50 -3 11 -5 24 -5 28 -1 7 -398 6 -406 -1z"/>
<path d="M3855 3869 c-4 -6 -5 -12 -2 -15 2 -3 7 2 10 11 7 17 1 20 -8 4z"/>
<path d="M1034 3862 c4 -3 14 -7 22 -8 9 -1 13 0 10 4 -4 3 -14 7 -22 8 -9 1
-13 0 -10 -4z"/>
<path d="M1194 3842 c4 -3 14 -7 22 -8 9 -1 13 0 10 4 -4 3 -14 7 -22 8 -9 1
-13 0 -10 -4z"/>
<path d="M3675 3840 c-3 -5 -1 -10 4 -10 6 0 11 5 11 10 0 6 -2 10 -4 10 -3 0
-8 -4 -11 -10z"/>
<path d="M3710 3840 c0 -5 7 -7 15 -4 8 4 15 8 15 10 0 2 -7 4 -15 4 -8 0 -15
-4 -15 -10z"/>
<path d="M3366 3783 c-6 -14 -5 -15 5 -6 7 7 10 15 7 18 -3 3 -9 -2 -12 -12z"/>
<path d="M1570 3779 c0 -5 5 -7 10 -4 6 3 10 8 10 11 0 2 -4 4 -10 4 -5 0 -10
-5 -10 -11z"/>
<path d="M1755 3760 c3 -5 8 -10 11 -10 2 0 4 5 4 10 0 6 -5 10 -11 10 -5 0
-7 -4 -4 -10z"/>
<path d="M1896 3733 c-6 -14 -5 -15 5 -6 7 7 10 15 7 18 -3 3 -9 -2 -12 -12z"/>
<path d="M3036 3742 c-3 -5 1 -9 9 -9 8 0 12 4 9 9 -3 4 -7 8 -9 8 -2 0 -6 -4
-9 -8z"/>
<path d="M1928 3354 c-2 -1 -21 -5 -43 -8 -35 -4 -80 -12 -230 -41 -60 -12
-90 -17 -115 -20 -14 -1 -32 -5 -40 -8 -8 -3 -31 -8 -50 -11 -19 -2 -57 -9
-85 -14 -52 -11 -125 -23 -160 -27 -11 -1 -27 -4 -35 -7 -8 -3 -49 -11 -90
-18 -95 -16 -108 -18 -128 -24 -9 -3 -35 -7 -57 -11 -48 -7 -103 -16 -130 -22
-11 -3 -31 -6 -43 -7 -13 -1 -28 -9 -32 -17 -8 -14 -22 -94 -23 -126 0 -7 -5
-13 -11 -13 -6 0 -4 -5 4 -10 8 -5 11 -10 5 -10 -5 0 -11 -26 -12 -57 -1 -33
-8 -60 -15 -65 -10 -6 -10 -8 2 -8 12 0 12 -2 1 -9 -9 -6 -10 -11 -2 -15 6 -4
8 -13 4 -19 -8 -12 -10 -24 -12 -78 0 -16 -5 -28 -10 -24 -5 3 -13 1 -16 -5
-4 -6 -1 -9 6 -8 14 3 14 -46 1 -87 -3 -11 -5 -28 -3 -37 1 -10 -3 -18 -10
-18 -8 0 -8 -4 1 -15 8 -10 9 -15 2 -15 -6 0 -9 -7 -6 -15 4 -8 3 -23 -1 -32
-4 -10 -8 -44 -10 -76 -2 -32 -9 -65 -16 -73 -6 -8 -7 -14 -2 -14 11 0 2 -67
-11 -88 -4 -7 -2 -12 5 -12 10 0 10 -3 2 -11 -6 -6 -9 -18 -6 -27 4 -8 2 -13
-3 -10 -5 4 -9 -13 -10 -35 -1 -40 -11 -142 -14 -142 -2 0 -12 -87 -13 -117
-1 -16 -4 -28 -8 -28 -3 0 -4 -12 -1 -26 4 -21 2 -25 -9 -19 -11 7 -12 6 -2
-7 7 -8 10 -18 7 -21 -4 -3 -8 -26 -9 -49 -2 -24 -7 -68 -10 -98 -4 -30 -7
-61 -8 -67 0 -7 -3 -13 -6 -13 -4 0 -6 -18 -5 -40 0 -23 -4 -40 -10 -40 -6 0
-4 -5 4 -10 8 -5 10 -10 4 -10 -6 0 -10 -10 -9 -22 1 -13 -1 -32 -5 -43 -5
-13 -2 -31 6 -45 8 -15 13 -19 14 -10 0 9 3 11 8 5 4 -5 16 -12 27 -13 22 -4
37 -21 29 -34 -3 -4 0 -8 6 -8 7 0 9 9 5 23 -3 12 -3 18 2 12 8 -10 28 -17 51
-18 6 0 12 -5 12 -10 0 -5 7 -6 15 -3 9 3 18 -1 22 -10 5 -13 7 -13 14 -2 7
10 9 10 9 0 0 -7 8 -12 18 -10 10 2 16 -2 14 -11 -3 -12 0 -12 12 -1 12 9 16
9 16 1 0 -7 6 -11 13 -10 26 3 48 -1 43 -9 -3 -5 9 -9 25 -9 17 0 34 -5 38
-11 3 -6 13 -10 21 -9 8 1 34 -4 58 -11 39 -12 42 -15 30 -30 -12 -16 -11 -16
7 -1 17 13 25 14 48 5 15 -7 24 -16 20 -20 -4 -4 4 -5 18 -3 33 6 113 -28 103
-44 -4 -8 -3 -9 5 -5 6 4 8 12 5 18 -4 6 -1 8 7 6 8 -3 13 -10 12 -16 -1 -5 7
-8 17 -5 11 3 31 -2 45 -11 18 -12 25 -13 25 -4 0 7 9 0 19 -15 10 -16 21 -24
25 -19 3 5 -1 13 -10 16 -9 4 -14 9 -11 12 9 9 48 -16 42 -27 -4 -5 -2 -9 4
-9 5 0 11 5 13 12 3 8 10 8 26 -4 12 -8 19 -19 14 -24 -4 -4 0 -3 9 3 20 16
59 5 60 -16 0 -10 2 -11 6 -3 7 17 23 15 23 -2 0 -20 17 -29 26 -15 4 8 3 9
-4 5 -7 -4 -12 -2 -12 4 0 13 41 3 51 -12 3 -5 10 -8 15 -7 5 2 24 -1 43 -5
25 -6 30 -11 20 -17 -9 -6 -4 -7 16 -3 41 9 45 12 38 31 -5 12 -3 14 7 8 10
-6 11 -4 4 6 -11 18 -6 52 10 61 8 6 7 8 -2 8 -7 0 -10 5 -7 11 4 6 9 31 11
57 2 26 6 61 9 77 3 17 7 45 8 63 1 17 4 32 8 32 3 0 4 11 1 25 -2 14 2 33 9
42 10 12 10 14 2 9 -14 -8 -18 6 -6 17 3 4 8 28 10 54 1 26 8 50 15 55 11 6
11 8 0 8 -8 0 -10 9 -6 28 8 41 14 83 17 124 1 20 5 34 9 32 4 -3 5 9 1 27 -4
20 -2 30 4 26 5 -4 8 6 5 25 -4 24 -2 29 9 23 11 -6 12 -5 2 5 -10 11 -10 17
0 29 10 12 9 13 -3 6 -13 -8 -13 -7 -1 8 10 13 10 17 1 17 -8 0 -9 4 -3 13 5
6 9 21 9 32 -1 11 6 26 14 33 9 8 9 11 2 7 -16 -8 -13 26 3 37 6 5 5 8 -2 8
-7 0 -13 5 -13 11 0 5 3 8 8 6 4 -3 8 20 9 50 2 30 6 67 9 82 3 14 7 44 9 66
3 22 8 60 11 85 9 68 11 84 13 98 0 8 6 10 14 6 10 -6 10 -4 0 7 -15 15 -18
43 -4 35 12 -8 8 27 -4 36 -6 5 -6 8 1 8 7 0 10 13 9 30 -1 17 0 30 4 30 3 0
7 19 7 43 3 84 4 88 17 81 9 -6 9 -4 -1 8 -7 9 -9 19 -4 22 5 3 7 18 4 32 -4
20 -2 25 8 19 9 -6 9 -3 0 15 -11 20 -10 22 5 16 14 -5 15 -4 7 7 -6 7 -10 24
-7 37 2 12 5 40 7 62 1 22 5 41 9 43 3 3 5 18 3 34 -3 25 0 29 14 25 13 -5 14
-4 3 4 -10 7 -12 23 -7 63 4 30 7 62 7 72 0 9 4 15 8 13 4 -3 6 8 3 23 -2 16
1 38 7 50 8 14 8 21 1 21 -7 0 -8 6 -1 19 6 10 7 21 3 25 -3 4 0 11 8 16 11 7
12 10 2 10 -7 0 -10 5 -7 10 4 6 12 7 18 4 8 -5 8 -3 0 7 -7 7 -13 23 -13 35
0 19 -5 23 -30 22 -16 -1 -31 -2 -32 -4z"/>
<path d="M2832 3300 c2 -34 7 -64 11 -67 4 -3 2 -12 -5 -21 -10 -12 -10 -14 0
-8 8 5 12 0 13 -16 0 -13 3 -32 5 -43 11 -49 12 -75 4 -75 -6 0 -10 -4 -10
-10 0 -5 6 -7 13 -4 9 3 12 -7 11 -36 0 -22 2 -40 5 -40 12 0 10 -44 -1 -58
-9 -10 -8 -12 2 -10 9 2 15 -6 15 -22 0 -14 3 -29 6 -35 11 -22 10 -77 -3 -93
-12 -16 -11 -16 6 -2 18 14 19 13 14 -7 -4 -13 -2 -23 4 -23 6 0 4 -8 -3 -17
-10 -11 -10 -14 -1 -9 8 5 12 0 13 -16 3 -54 17 -137 26 -151 4 -6 1 -7 -8 -2
-11 6 -12 5 -1 -6 6 -7 12 -17 12 -22 0 -4 -6 -5 -12 -1 -7 4 -4 -3 7 -16 12
-14 14 -20 5 -15 -13 8 -13 7 -1 -8 11 -14 11 -17 0 -17 -10 0 -10 -3 -3 -8
11 -7 40 -145 35 -169 -1 -7 2 -21 8 -31 6 -11 6 -24 -1 -36 -8 -14 -7 -17 1
-12 7 5 11 -1 12 -16 0 -13 2 -32 4 -43 15 -82 16 -117 3 -110 -7 3 -6 1 3 -7
19 -16 33 -62 16 -51 -7 4 -6 -1 2 -11 12 -14 12 -19 2 -25 -10 -7 -10 -9 1
-14 10 -3 14 -22 13 -60 0 -30 3 -53 6 -51 4 2 9 -5 12 -16 3 -13 1 -18 -6
-14 -8 5 -7 2 1 -7 6 -7 12 -21 12 -32 0 -11 -5 -16 -12 -12 -7 4 -6 1 3 -7 9
-7 16 -20 16 -28 0 -9 3 -28 7 -44 5 -21 4 -26 -6 -20 -7 4 -5 -2 5 -13 13
-14 15 -23 7 -28 -8 -5 -7 -11 2 -22 7 -9 12 -18 11 -20 -2 -1 -3 -4 -2 -5 8
-29 6 -57 -4 -52 -7 3 -4 -1 6 -9 12 -10 14 -17 8 -22 -6 -3 -11 -12 -11 -18
0 -8 3 -8 9 1 6 10 10 7 13 -12 4 -17 0 -26 -11 -29 -14 -4 -14 -5 1 -6 12 -1
16 -9 14 -33 -1 -18 2 -38 7 -45 4 -6 9 -27 11 -46 2 -19 7 -41 11 -48 5 -7 4
-10 -1 -6 -5 3 -10 -3 -10 -13 0 -10 4 -16 8 -14 4 3 9 -10 10 -28 2 -53 4
-72 11 -88 3 -8 5 -22 5 -30 0 -8 2 -27 6 -42 17 -75 17 -80 4 -72 -8 4 -7 0
3 -12 8 -10 15 -34 14 -51 -1 -18 2 -33 7 -33 4 0 6 -13 4 -30 -2 -16 -1 -32
2 -35 3 -3 7 -11 8 -18 1 -7 5 -27 8 -44 4 -23 2 -33 -6 -33 -8 0 -7 -4 3 -10
11 -6 16 -20 14 -40 -1 -17 1 -33 6 -36 5 -3 4 -14 -2 -26 -6 -11 -7 -18 -2
-15 5 3 13 -18 19 -48 5 -29 6 -51 2 -49 -4 3 -1 -8 7 -22 9 -18 11 -33 5 -44
-11 -20 -4 -31 16 -23 8 3 30 -4 49 -16 23 -13 35 -16 35 -8 1 7 8 0 16 -15 8
-16 17 -28 20 -28 2 0 0 9 -6 20 -7 14 -7 20 0 20 5 0 10 -5 10 -11 0 -5 5 -7
12 -3 8 5 9 2 5 -9 -5 -14 -3 -15 13 -5 16 10 22 9 33 -7 14 -18 62 -31 51
-13 -6 9 25 -1 42 -13 6 -5 14 -6 17 -2 4 3 7 1 7 -5 0 -6 8 -11 18 -11 38 -1
52 -5 52 -13 0 -4 3 -7 8 -7 29 5 52 -3 53 -18 0 -10 3 -13 5 -7 2 6 18 9 34
6 18 -2 27 -9 23 -15 -4 -6 0 -8 10 -4 23 9 49 -2 40 -17 -4 -7 -2 -7 7 1 10
9 19 9 41 -3 16 -8 29 -12 29 -8 0 4 6 2 13 -3 15 -12 70 -29 105 -32 7 0 11
-5 8 -9 -2 -4 4 -13 15 -20 10 -7 19 -8 19 -3 0 5 -6 12 -12 15 -7 3 1 3 17
-1 17 -3 39 -13 49 -22 16 -13 18 -13 11 -1 -7 12 -6 13 7 3 8 -7 18 -10 21
-6 4 3 7 1 7 -6 0 -7 4 -10 9 -6 6 3 14 -3 20 -12 10 -17 10 -17 11 0 0 11 5
15 11 11 8 -5 10 3 7 25 -3 18 0 31 6 31 7 0 7 3 1 8 -5 4 -11 15 -12 25 -1
13 4 17 15 13 16 -6 16 -5 0 7 -18 14 -26 56 -15 75 5 6 4 12 0 12 -5 0 -9 9
-10 20 -1 11 4 20 10 20 8 0 8 3 -1 9 -7 4 -14 31 -16 63 -1 30 -6 60 -10 66
-3 6 -2 14 4 17 7 4 7 11 2 18 -5 7 -10 35 -11 62 -3 93 -6 120 -14 132 -5 8
-3 13 4 13 8 0 8 4 1 13 -6 6 -12 49 -14 95 -2 45 -7 82 -11 82 -5 0 -5 6 0
13 10 16 13 37 4 37 -4 0 -8 11 -9 26 -1 18 2 23 11 18 9 -6 9 -5 0 7 -16 20
-24 120 -10 137 7 9 6 11 -8 6 -15 -6 -16 -4 -7 11 7 13 6 24 -1 37 -9 14 -9
23 1 39 8 12 9 18 3 14 -7 -3 -11 3 -12 17 -1 13 -3 39 -5 58 -10 101 -15 169
-16 208 0 23 -4 42 -9 42 -6 0 -5 9 1 20 6 11 7 20 2 20 -7 0 -14 74 -16 173
-1 20 -3 37 -6 37 -3 0 -6 26 -8 58 -4 102 -8 148 -15 159 -4 6 -1 14 5 16 10
4 10 6 0 6 -10 1 -10 6 -1 22 8 15 8 19 0 15 -10 -7 -13 14 -15 122 -1 15 -5
30 -11 34 -6 5 -5 8 4 8 10 0 11 3 3 13 -7 8 -7 18 -2 27 6 10 4 20 -6 31 -10
12 -12 19 -4 24 5 3 7 12 3 18 -4 7 -8 32 -8 58 -1 25 -5 50 -9 57 -4 7 -2 12
6 12 8 0 9 3 3 8 -16 10 -17 54 -2 45 9 -5 9 -3 0 8 -6 8 -14 43 -18 79 -3 35
-9 68 -11 72 -3 4 1 8 8 8 9 0 9 3 2 8 -6 4 -11 31 -12 60 0 28 -3 56 -7 61
-3 5 -1 13 5 16 8 5 8 11 0 20 -7 8 -9 19 -5 25 3 5 2 10 -4 10 -10 0 -7 32 5
52 4 7 3 8 -4 4 -7 -4 -12 -1 -12 8 0 9 6 16 13 16 9 0 9 2 -1 8 -6 5 -14 35
-16 68 -2 32 -5 61 -6 64 -1 3 -2 12 -1 22 2 12 -10 18 -41 23 -24 4 -52 9
-63 11 -11 2 -65 12 -120 21 -55 10 -102 20 -105 23 -3 3 -14 5 -25 5 -11 -1
-36 3 -55 7 -19 4 -57 11 -85 14 -27 4 -53 8 -58 11 -8 5 -43 12 -92 19 -75
10 -101 14 -113 19 -8 3 -37 8 -65 11 -29 4 -56 9 -61 12 -5 3 -25 7 -45 9
-37 3 -76 10 -76 13 0 1 -9 3 -20 5 -11 1 -44 6 -73 10 l-53 8 3 -63z m698
-3006 c0 -8 -19 -13 -24 -6 -3 5 1 9 9 9 8 0 15 -2 15 -3z"/>
<path d="M575 1240 c-3 -6 1 -7 9 -4 18 7 21 14 7 14 -6 0 -13 -4 -16 -10z"/>
<path d="M980 1136 c0 -2 7 -9 15 -16 9 -7 15 -8 15 -2 0 5 -7 12 -15 16 -8 3
-15 4 -15 2z"/>
<path d="M1418 988 c5 -5 16 -8 23 -6 8 3 3 7 -10 11 -17 4 -21 3 -13 -5z"/>
<path d="M3327 339 c7 -7 15 -10 18 -7 3 3 -2 9 -12 12 -14 6 -15 5 -6 -5z"/>
<path d="M3890 160 c0 -5 5 -10 11 -10 5 0 7 5 4 10 -3 6 -8 10 -11 10 -2 0
-4 -4 -4 -10z"/>
<path d="M3931 144 c0 -11 3 -14 6 -6 3 7 2 16 -1 19 -3 4 -6 -2 -5 -13z"/>
<path d="M4020 120 c-9 -6 -10 -10 -3 -10 6 0 15 5 18 10 8 12 4 12 -15 0z"/>
</g>
</svg>
